# xmcd
#
# Track frame offsets:
#	150
#	17557
#	34703
#	46943
#	64545
#	84618
#	101964
#	121616
#	136783
#	153060
#	168492
#	181043
#	196757
#	212872
#	227787
#	242716
#	260187
#
# Disc length: 3710 seconds
#
# Revision: 3
# Processed by: cddbd v1.5.2PL0 Copyright (c) Steve Scherf et al.
# Submitted via: audiograbber 1.83.01
#
DISCID=d90e7c11
DTITLE=Various Artist - Pure... Country  [CD04)
DYEAR=2010
DGENRE=Country
TTITLE0=Alan Jackson - It's Five O'Clock Somewhere 
TTITLE1=Sara Evans - Suds In The Bucket
TTITLE2=Clint Black - A Good Run Of Bad Luck
TTITLE3=Montgomery Gentry - Roll With Me
TTITLE4=Brad Paisley - She's Everything
TTITLE5=Kenny Chesney - You Had Me From Hello
TTITLE6=Martina McBride - I Just Call You Mine
TTITLE7=Brooks and Dunn - Ain't Nothing 'bout You
TTITLE8=Gretchen Wilson - Redneck Woman
TTITLE9=Chet Atkins and Mark Knopfler - Yakety Axe
TTITLE10=Aaron Tippin - There ain't Nothing Wrong With The Radio
TTITLE11=Doug Stone - A Jukebox With A Country Song
TTITLE12=Patty Loveless - Blame It On Your Heart
TTITLE13=Diamond Rio - Meet In The Middle
TTITLE14=Sylvia - Nobody
TTITLE15=Eddie Rabbitt and Juice Newton - Both To Each Other (Friends and Lovers)
TTITLE16=Lonestar - Amazed
EXTD=
EXTT0=
EXTT1=
EXTT2=
EXTT3=
EXTT4=
EXTT5=
EXTT6=
EXTT7=
EXTT8=
EXTT9=
EXTT10=
EXTT11=
EXTT12=
EXTT13=
EXTT14=
EXTT15=
EXTT16=
PLAYORDER=
